<svg width="371" height="327" viewBox="0 0 371 327" fill="none" xmlns="http://www.w3.org/2000/svg">
<path fill-rule="evenodd" clip-rule="evenodd" d="M286.809 206.444C286.809 201.979 282.226 198.95 278.309 200.558L278.254 200.581L189.936 235.473C186.344 236.993 182.263 236.993 178.671 235.473L90.3736 200.589C86.2848 199.027 81.7981 202.119 81.7981 206.444V268.931C81.7981 271.395 83.2033 273.595 85.5903 274.692L181.8 316.753C181.834 316.768 181.868 316.783 181.901 316.799C183.386 317.493 185.221 317.493 186.706 316.799C186.72 316.793 186.734 316.786 186.748 316.78C186.767 316.771 186.787 316.762 186.807 316.753L283.017 274.692C285.403 273.595 286.809 271.395 286.809 268.931V206.444ZM274.944 192.263C284.973 188.17 295.753 195.878 295.753 206.444V268.931C295.753 275.053 292.16 280.366 286.691 282.854L286.631 282.881L190.433 324.937C186.581 326.716 182.026 326.716 178.174 324.937L81.9758 282.881L81.9153 282.854C76.447 280.366 72.8535 275.053 72.8535 268.931V206.444C72.8535 195.734 83.7399 188.443 93.6004 192.239L93.6371 192.253L182.01 227.168C182.05 227.184 182.09 227.2 182.129 227.217C183.509 227.809 185.098 227.809 186.477 227.217C186.517 227.2 186.557 227.184 186.597 227.168L274.944 192.263Z" fill="#DFBA52"/>
<path fill-rule="evenodd" clip-rule="evenodd" d="M286.809 206.444C286.809 201.979 282.226 198.95 278.309 200.558L278.254 200.581L189.936 235.473C186.344 236.993 182.263 236.993 178.671 235.473L90.3736 200.589C86.2848 199.027 81.7981 202.119 81.7981 206.444V268.931C81.7981 271.395 83.2033 273.595 85.5903 274.692L181.8 316.753C181.834 316.768 181.868 316.783 181.901 316.799C183.386 317.493 185.221 317.493 186.706 316.799C186.72 316.793 186.734 316.786 186.748 316.78C186.767 316.771 186.787 316.762 186.807 316.753L283.017 274.692C285.403 273.595 286.809 271.395 286.809 268.931V206.444ZM274.944 192.263C284.973 188.17 295.753 195.878 295.753 206.444V268.931C295.753 275.053 292.16 280.366 286.691 282.854L286.631 282.881L190.433 324.937C186.581 326.716 182.026 326.716 178.174 324.937L81.9758 282.881L81.9153 282.854C76.447 280.366 72.8535 275.053 72.8535 268.931V206.444C72.8535 195.734 83.7399 188.443 93.6004 192.239L93.6371 192.253L182.01 227.168C182.05 227.184 182.09 227.2 182.129 227.217C183.509 227.809 185.098 227.809 186.477 227.217C186.517 227.2 186.557 227.184 186.597 227.168L274.944 192.263Z" fill="url(#paint0_linear_364_442)" fill-opacity="0.75"/>
<path fill-rule="evenodd" clip-rule="evenodd" d="M102.111 178.549C104.63 176.894 107.811 176.619 110.576 177.817L178.7 207.345C182.354 208.888 186.43 208.888 190.084 207.345L258.208 177.817C260.973 176.619 264.154 176.894 266.673 178.549C269.191 180.204 270.707 183.017 270.707 186.032V254.786C270.707 258.352 268.593 261.578 265.325 262.998L187.865 296.659C185.59 297.648 183.007 297.647 180.733 296.656L103.452 262.995C100.188 261.573 98.0765 258.35 98.0765 254.786V186.032C98.0765 183.017 99.5931 180.204 102.111 178.549ZM115.966 199.665V248.919L184.307 278.686L252.818 248.914V199.665L197.16 223.79L197.098 223.816C188.962 227.271 179.822 227.271 171.686 223.816L171.624 223.79L115.966 199.665Z" fill="#DFBA52"/>
<path fill-rule="evenodd" clip-rule="evenodd" d="M102.111 178.549C104.63 176.894 107.811 176.619 110.576 177.817L178.7 207.345C182.354 208.888 186.43 208.888 190.084 207.345L258.208 177.817C260.973 176.619 264.154 176.894 266.673 178.549C269.191 180.204 270.707 183.017 270.707 186.032V254.786C270.707 258.352 268.593 261.578 265.325 262.998L187.865 296.659C185.59 297.648 183.007 297.647 180.733 296.656L103.452 262.995C100.188 261.573 98.0765 258.35 98.0765 254.786V186.032C98.0765 183.017 99.5931 180.204 102.111 178.549ZM115.966 199.665V248.919L184.307 278.686L252.818 248.914V199.665L197.16 223.79L197.098 223.816C188.962 227.271 179.822 227.271 171.686 223.816L171.624 223.79L115.966 199.665Z" fill="url(#paint1_linear_364_442)" fill-opacity="0.75"/>
<path d="M261.763 254.785L184.303 288.446L107.021 254.785V186.031L175.179 215.573C181.083 218.08 187.702 218.08 193.605 215.573L261.763 186.031V254.785Z" fill="#DFBA52"/>
<path d="M261.763 254.785L184.303 288.446L107.021 254.785V186.031L175.179 215.573C181.083 218.08 187.702 218.08 193.605 215.573L261.763 186.031V254.785Z" fill="url(#paint2_linear_364_442)" fill-opacity="0.75"/>
<path d="M352.999 106.356H344.591V138.226H352.999V106.356Z" fill="#DFBA52"/>
<path d="M352.999 106.356H344.591V138.226H352.999V106.356Z" fill="url(#paint3_linear_364_442)" fill-opacity="0.75"/>
<path d="M360.514 192.118C360.872 196.237 357.652 199.817 353.537 199.817H348.707H343.877C339.762 199.817 336.542 196.237 336.9 192.118C337.437 186.389 338.152 179.048 338.689 175.467C339.226 171.528 340.836 162.755 341.909 157.025C342.446 153.623 345.487 151.295 348.886 151.295C352.285 151.295 355.147 153.802 355.863 157.025C356.936 162.934 358.546 171.707 359.083 175.467C359.262 178.869 359.977 186.389 360.514 192.118Z" fill="#DFBA52"/>
<path d="M360.514 192.118C360.872 196.237 357.652 199.817 353.537 199.817H348.707H343.877C339.762 199.817 336.542 196.237 336.9 192.118C337.437 186.389 338.152 179.048 338.689 175.467C339.226 171.528 340.836 162.755 341.909 157.025C342.446 153.623 345.487 151.295 348.886 151.295C352.285 151.295 355.147 153.802 355.863 157.025C356.936 162.934 358.546 171.707 359.083 175.467C359.262 178.869 359.977 186.389 360.514 192.118Z" fill="url(#paint4_linear_364_442)" fill-opacity="0.75"/>
<path d="M348.707 155.058C354.141 155.058 358.546 150.649 358.546 145.21C358.546 139.771 354.141 135.362 348.707 135.362C343.273 135.362 338.868 139.771 338.868 145.21C338.868 150.649 343.273 155.058 348.707 155.058Z" fill="#DFBA52"/>
<path d="M348.707 155.058C354.141 155.058 358.546 150.649 358.546 145.21C358.546 139.771 354.141 135.362 348.707 135.362C343.273 135.362 338.868 139.771 338.868 145.21C338.868 150.649 343.273 155.058 348.707 155.058Z" fill="url(#paint5_linear_364_442)" fill-opacity="0.75"/>
<path d="M357.292 72.157L326.702 58.3703C306.308 49.2388 282.337 49.2388 261.764 58.5493L235.288 70.5456C234.751 70.7246 234.393 70.9036 233.857 71.0827L187.881 92.2104C187.166 92.5685 186.271 92.7475 185.556 92.7475C183.409 92.7475 181.262 91.4942 180.368 89.5246C179.116 86.6599 180.368 83.258 183.23 82.0046L230.1 60.3398C230.1 60.3398 230.279 60.3398 230.279 60.1608L231.889 59.4446L252.819 49.776C262.837 43.3303 262.301 29.0064 250.851 23.635L215.252 7.16256C195.395 -2.32698 171.96 -2.32698 152.103 6.80447L74.8216 42.0769L15.4294 69.2922C-5.14315 78.7818 -5.14315 105.46 15.4294 114.77L74.8216 141.986L178.937 189.612C181.978 191.045 185.556 191.045 188.597 189.612L292.712 141.986L357.471 112.443C375.539 104.028 375.539 80.2141 357.292 72.157Z" fill="#DFBA52"/>
<path d="M357.292 72.157L326.702 58.3703C306.308 49.2388 282.337 49.2388 261.764 58.5493L235.288 70.5456C234.751 70.7246 234.393 70.9036 233.857 71.0827L187.881 92.2104C187.166 92.5685 186.271 92.7475 185.556 92.7475C183.409 92.7475 181.262 91.4942 180.368 89.5246C179.116 86.6599 180.368 83.258 183.23 82.0046L230.1 60.3398C230.1 60.3398 230.279 60.3398 230.279 60.1608L231.889 59.4446L252.819 49.776C262.837 43.3303 262.301 29.0064 250.851 23.635L215.252 7.16256C195.395 -2.32698 171.96 -2.32698 152.103 6.80447L74.8216 42.0769L15.4294 69.2922C-5.14315 78.7818 -5.14315 105.46 15.4294 114.77L74.8216 141.986L178.937 189.612C181.978 191.045 185.556 191.045 188.597 189.612L292.712 141.986L357.471 112.443C375.539 104.028 375.539 80.2141 357.292 72.157Z" fill="url(#paint6_linear_364_442)" fill-opacity="0.75"/>
<defs>
<linearGradient id="paint0_linear_364_442" x1="184.303" y1="191.147" x2="213.067" y2="313.354" gradientUnits="userSpaceOnUse">
<stop stop-color="#D02023"/>
<stop offset="0.544644" stop-color="#E65526"/>
<stop offset="0.984375" stop-color="#E65526"/>
</linearGradient>
<linearGradient id="paint1_linear_364_442" x1="184.392" y1="177.08" x2="213.35" y2="284.09" gradientUnits="userSpaceOnUse">
<stop stop-color="#D02023"/>
<stop offset="0.544644" stop-color="#E65526"/>
<stop offset="0.984375" stop-color="#E65526"/>
</linearGradient>
<linearGradient id="paint2_linear_364_442" x1="184.392" y1="186.031" x2="207.956" y2="277.731" gradientUnits="userSpaceOnUse">
<stop stop-color="#D02023"/>
<stop offset="0.544644" stop-color="#E65526"/>
<stop offset="0.984375" stop-color="#E65526"/>
</linearGradient>
<linearGradient id="paint3_linear_364_442" x1="348.795" y1="106.356" x2="362.936" y2="115.965" gradientUnits="userSpaceOnUse">
<stop stop-color="#D02023"/>
<stop offset="0.544644" stop-color="#E65526"/>
<stop offset="0.984375" stop-color="#E65526"/>
</linearGradient>
<linearGradient id="paint4_linear_364_442" x1="348.707" y1="151.295" x2="371.274" y2="179.647" gradientUnits="userSpaceOnUse">
<stop stop-color="#D02023"/>
<stop offset="0.544644" stop-color="#E65526"/>
<stop offset="0.984375" stop-color="#E65526"/>
</linearGradient>
<linearGradient id="paint5_linear_364_442" x1="348.707" y1="135.362" x2="355.054" y2="151.695" gradientUnits="userSpaceOnUse">
<stop stop-color="#D02023"/>
<stop offset="0.544644" stop-color="#E65526"/>
<stop offset="0.984375" stop-color="#E65526"/>
</linearGradient>
<linearGradient id="paint6_linear_364_442" x1="185.5" y1="2.65731e-06" x2="220.431" y2="175.041" gradientUnits="userSpaceOnUse">
<stop stop-color="#D02023"/>
<stop offset="0.544644" stop-color="#E65526"/>
<stop offset="0.984375" stop-color="#E65526"/>
</linearGradient>
</defs>
</svg>
