<svg width="887" height="887" viewBox="0 0 887 887" fill="none" xmlns="http://www.w3.org/2000/svg">
<mask id="mask0_362_3439" style="mask-type:alpha" maskUnits="userSpaceOnUse" x="102" y="84" width="684" height="684">
<circle cx="444.056" cy="426.128" r="341.376" fill="#D9D9D9"/>
</mask>
<g mask="url(#mask0_362_3439)">
<circle cx="444.056" cy="426.128" r="341.376" fill="url(#paint0_linear_362_3439)"/>
<path d="M36.2324 294.04L110.621 286.557L103.682 335.564L197.234 464.137L298.219 495.712L382.301 551.067L447.045 580.601L493.267 661.312L710.312 764.347L33.3233 832.443L103.682 335.564L36.2324 294.04Z" fill="url(#paint1_linear_362_3439)"/>
<path d="M199.874 508.339L146.676 481.149L127.453 437.431L113.61 431.565L119.945 409.276L110.333 370.674L47.2313 817.036L600.261 761.409L470.706 699.973L427.066 699.973L427.066 677.919L385.182 611.14L332.29 586.984L296.451 540.127L199.874 508.339Z" fill="#7B5F92"/>
<path d="M166.554 699.758L348.574 776.744L454.706 766.674L290.509 708.861L196.09 582.703L99.0635 602.443L166.554 699.758Z" fill="url(#paint2_linear_362_3439)"/>
<path d="M193.147 520.018L133.553 485.997L171.092 523.537L267.288 549.346L306.47 592.751L289.342 549.346L193.147 520.018Z" fill="url(#paint3_linear_362_3439)"/>
<path d="M383.426 615.978L331.574 597.209L400.553 659.384L383.426 615.978Z" fill="url(#paint4_linear_362_3439)"/>
<path fill-rule="evenodd" clip-rule="evenodd" d="M620.545 657.561L587.155 700.466C589.444 728.104 593.751 785.544 592.674 794.2C592.535 795.316 592.459 796.447 592.383 797.582C591.72 807.454 591.034 817.656 548.792 821.234C501.694 825.224 525.501 803.337 539.643 794.822C543.217 792.67 546.329 791.245 548.997 790.024C556.885 786.412 560.888 784.579 561.463 770.994C561.808 762.842 558.608 747.127 555.311 730.939C551.256 711.028 547.056 690.4 549.127 682.25C552.132 670.428 577.837 617.743 590.314 592.878L589.876 555.56C577.523 562.65 542.486 569.458 523.766 565.32L511.24 826.255L510.017 566.184C504.865 566.624 497.981 563.532 496.72 557.226C495.827 552.763 498.599 552.475 500.281 552.3C500.986 552.227 501.5 552.174 501.471 551.841C499.888 547.723 507.173 545.822 507.173 545.822C507.706 540.491 518.558 542.561 525.463 543.879C526.764 544.127 527.925 544.349 528.85 544.489C540.985 546.328 558.416 531.823 568.939 521.877C570.151 521.081 571.789 520.192 573.645 519.184C581.497 514.923 593.253 508.543 593.131 498.063C592.83 472.468 601.969 466.044 607.989 461.811C611.912 459.053 614.511 457.225 612.314 451.633C611.671 449.994 609.361 450.198 606.414 450.46C599.363 451.085 588.662 452.033 588.39 428.832L588.195 412.179C577.404 413.288 571.953 411.246 569.004 408.967C562.066 403.603 573.825 401.009 585.691 400.87C589.489 400.826 590.722 396.706 591.896 392.786C592.669 390.204 593.417 387.709 594.854 386.522C611.39 372.863 624.261 374.347 634.662 389.001C641.502 398.638 644.606 414.661 641.49 414.039C639.308 423.395 635.656 439.124 639.561 437.114C640.863 436.444 643.457 433.784 646.846 430.309C656.161 420.756 671.478 405.049 682.432 407.637C729.793 418.825 770.645 465.267 753.949 500.205C746.641 515.498 741.153 533.445 736.162 549.765C729.471 571.644 723.674 590.6 715.584 596.32C704.284 604.31 685.758 607.474 677.907 608.057C672.676 622.688 662.327 661.475 662.774 699.579C662.969 716.214 664.54 732.714 666.036 748.425C668.824 777.697 671.351 804.232 664.23 823.81C653.288 853.895 620.146 875.401 622.278 847.874C623.985 825.853 630.67 795.719 633.8 783.405C631.723 759.857 626.165 710.223 620.545 700.074C617.082 693.819 618.77 680.174 620.032 669.978C620.817 663.63 621.437 658.619 620.545 657.561Z" fill="url(#paint5_linear_362_3439)"/>
<g style="mix-blend-mode:overlay">
<path d="M657.093 229.622C629.689 212.916 587.645 237.409 570.048 260.793L389.858 294.143C343.403 305.405 489.713 339.66 570.048 339.66C670.467 339.66 717.86 278.892 767.131 305.405C816.402 331.917 842.914 328.163 956.706 305.405C1070.5 282.646 691.348 250.503 657.093 229.622Z" fill="url(#paint6_linear_362_3439)"/>
</g>
<g style="mix-blend-mode:overlay">
<path d="M802.09 331.459C774.686 314.754 761.969 331.459 684.544 348.044L550.809 364.809C504.353 376.071 650.664 410.326 730.999 410.326C831.417 410.326 878.811 349.558 928.082 376.071C977.353 402.583 1003.86 398.829 1117.66 376.071C1231.45 353.312 836.345 352.341 802.09 331.459Z" fill="url(#paint7_linear_362_3439)"/>
</g>
<g style="mix-blend-mode:overlay">
<path d="M104.327 400.996L69.9926 328.405L619.581 101.313L675.049 116.539L104.327 400.996Z" fill="url(#paint8_linear_362_3439)" fill-opacity="0.2"/>
</g>
<g style="mix-blend-mode:overlay">
<path d="M118.095 284.546L76.1347 276.73L565.534 83.6398L619.933 72.89L118.095 284.546Z" fill="#D9D9D9" fill-opacity="0.2"/>
</g>
</g>
<path fill-rule="evenodd" clip-rule="evenodd" d="M228.034 254.425L243.828 263.21L241.881 254.04L239.739 256.523L228.034 254.425ZM244.678 260.904L254.252 249.593L245.358 255.068L242.563 254.181L244.678 260.904ZM276.562 306.298L301.025 319.906L298.01 305.702L294.693 309.548L276.562 306.298ZM302.342 316.333L317.172 298.813L303.396 307.294L299.066 305.92L302.342 316.333ZM205.837 342.857L226.586 379.436L233.82 358.855L226.558 361.197L205.837 342.857ZM263.789 364.995L231.068 375.882L235.005 359.961L239.485 365.108L263.789 364.995ZM211.373 306.241L196.257 297.111L208.384 299.91L211.203 297.845L211.373 306.241ZM227.703 292.593L213.211 308.523L211.92 297.426L215.283 299.415L227.703 292.593ZM312.017 402.951L273.812 401.287L299.766 394.02L302.98 387.168L312.017 402.951ZM312.363 385.92L328.887 360.062L317.877 405.38L317.877 405.38L303.907 385.63L303.907 385.629L312.363 385.92ZM392.841 453.672L334.925 468.243L370.519 445.778L372.269 434.09L392.841 453.672ZM398.934 381.958L402.695 454.69L372.97 431.373L385.754 428.031L398.934 381.958Z" fill="url(#paint9_linear_362_3439)"/>
<path opacity="0.8" d="M443.822 106.338L418.626 62.6981L469.017 62.6981L443.822 106.338Z" fill="#B8442A"/>
<path opacity="0.8" d="M759.624 439.502L803.263 414.306V464.697L759.624 439.502Z" fill="#F5F6FF"/>
<path opacity="0.8" d="M126.883 439.501L83.0081 464.284L83.4827 413.895L126.883 439.501Z" fill="#F5F6FF"/>
<path d="M368.892 794.515L454.657 848.775L412.199 794.515L458.765 747.371L368.892 794.515Z" fill="#C68560"/>
<path fill-rule="evenodd" clip-rule="evenodd" d="M406.753 800.962C418.95 802.135 431.313 802.735 443.817 802.735C654.989 802.735 826.177 631.546 826.177 420.375C826.177 209.203 654.989 38.0143 443.817 38.0143C431.313 38.0143 418.95 38.6145 406.753 39.7876V52.5205C418.943 51.307 431.308 50.6857 443.817 50.6857C647.991 50.6857 813.506 216.201 813.506 420.375C813.506 624.548 647.991 790.064 443.817 790.064C431.308 790.064 418.943 789.442 406.753 788.229V800.962Z" fill="#C68560"/>
<path fill-rule="evenodd" clip-rule="evenodd" d="M125.346 232.521C92.8032 287.572 74.128 351.792 74.128 420.375C74.128 567.742 160.354 694.97 285.107 754.358V768.343C153.152 708.06 61.4565 574.926 61.4565 420.375C61.4565 352.099 79.3517 288.003 110.708 232.521H125.346Z" fill="url(#paint10_linear_362_3439)"/>
<circle cx="377.926" cy="49.1018" r="6.01893" fill="url(#paint11_linear_362_3439)"/>
<circle cx="222.701" cy="111.825" r="4.435" stroke="url(#paint12_linear_362_3439)" stroke-width="3.16786"/>
<circle cx="173.282" cy="148.572" r="4.435" stroke="url(#paint13_linear_362_3439)" stroke-width="3.16786"/>
<circle cx="134" cy="202.426" r="4.435" stroke="url(#paint14_linear_362_3439)" stroke-width="3.16786"/>
<circle cx="307.599" cy="774.541" r="4.435" stroke="url(#paint15_linear_362_3439)" stroke-width="3.16786"/>
<circle cx="341.812" cy="786.579" r="4.435" stroke="url(#paint16_linear_362_3439)" stroke-width="3.16786"/>
<circle cx="321.537" cy="61.1397" r="6.01893" fill="url(#paint17_linear_362_3439)"/>
<ellipse cx="272.436" cy="80.1468" rx="5.70214" ry="6.01893" fill="url(#paint18_linear_362_3439)"/>
<defs>
<linearGradient id="paint0_linear_362_3439" x1="444.057" y1="84.7526" x2="478.546" y2="728.792" gradientUnits="userSpaceOnUse">
<stop stop-color="#AA6CA6"/>
<stop offset="0.723496" stop-color="#FB935D"/>
<stop offset="1" stop-color="#E06359"/>
</linearGradient>
<linearGradient id="paint1_linear_362_3439" x1="480.385" y1="813.413" x2="123.499" y2="373.925" gradientUnits="userSpaceOnUse">
<stop stop-color="#182A58"/>
<stop offset="1" stop-color="#182A58" stop-opacity="0.51"/>
</linearGradient>
<linearGradient id="paint2_linear_362_3439" x1="231.611" y1="702.463" x2="182.245" y2="656.388" gradientUnits="userSpaceOnUse">
<stop stop-color="#4F4258"/>
<stop offset="1" stop-color="#4F4258" stop-opacity="0"/>
</linearGradient>
<linearGradient id="paint3_linear_362_3439" x1="220.011" y1="485.997" x2="211.682" y2="584.304" gradientUnits="userSpaceOnUse">
<stop stop-color="#4F4258"/>
<stop offset="1" stop-color="#4F4258" stop-opacity="0"/>
</linearGradient>
<linearGradient id="paint4_linear_362_3439" x1="339.551" y1="597.209" x2="366.064" y2="659.384" gradientUnits="userSpaceOnUse">
<stop stop-color="#4F4258"/>
<stop offset="1" stop-color="#4F4258" stop-opacity="0"/>
</linearGradient>
<linearGradient id="paint5_linear_362_3439" x1="627.151" y1="377.092" x2="627.151" y2="860.564" gradientUnits="userSpaceOnUse">
<stop stop-color="#7B5F92"/>
<stop offset="1" stop-color="#390D0D"/>
</linearGradient>
<linearGradient id="paint6_linear_362_3439" x1="683.896" y1="225.835" x2="684.075" y2="310.299" gradientUnits="userSpaceOnUse">
<stop stop-color="#D9D9D9"/>
<stop offset="1" stop-color="#D9D9D9" stop-opacity="0"/>
</linearGradient>
<linearGradient id="paint7_linear_362_3439" x1="844.846" y1="296.501" x2="839.864" y2="367.238" gradientUnits="userSpaceOnUse">
<stop stop-color="#D9D9D9"/>
<stop offset="1" stop-color="#D9D9D9" stop-opacity="0"/>
</linearGradient>
<linearGradient id="paint8_linear_362_3439" x1="320.72" y1="253.82" x2="403.137" y2="392.836" gradientUnits="userSpaceOnUse">
<stop stop-color="white"/>
<stop offset="1" stop-color="white" stop-opacity="0"/>
</linearGradient>
<linearGradient id="paint9_linear_362_3439" x1="414.724" y1="491.433" x2="234.309" y2="187.521" gradientUnits="userSpaceOnUse">
<stop stop-color="#764F97"/>
<stop offset="1" stop-color="#764F97" stop-opacity="0"/>
</linearGradient>
<linearGradient id="paint10_linear_362_3439" x1="396.313" y1="232.521" x2="396.313" y2="662.581" gradientUnits="userSpaceOnUse">
<stop stop-color="#E4D1F3"/>
<stop offset="1" stop-color="#7B5F92"/>
</linearGradient>
<linearGradient id="paint11_linear_362_3439" x1="377.926" y1="43.0828" x2="377.926" y2="55.1207" gradientUnits="userSpaceOnUse">
<stop offset="0.260417" stop-color="#DE815F"/>
<stop offset="0.932292" stop-color="#76608F"/>
</linearGradient>
<linearGradient id="paint12_linear_362_3439" x1="234.705" y1="105.806" x2="234.705" y2="115.468" gradientUnits="userSpaceOnUse">
<stop stop-color="#E4D1F3"/>
<stop offset="1" stop-color="#7B5F92"/>
</linearGradient>
<linearGradient id="paint13_linear_362_3439" x1="185.286" y1="142.554" x2="185.286" y2="152.215" gradientUnits="userSpaceOnUse">
<stop stop-color="#E4D1F3"/>
<stop offset="1" stop-color="#7B5F92"/>
</linearGradient>
<linearGradient id="paint14_linear_362_3439" x1="146.005" y1="196.407" x2="146.005" y2="206.069" gradientUnits="userSpaceOnUse">
<stop stop-color="#E4D1F3"/>
<stop offset="1" stop-color="#7B5F92"/>
</linearGradient>
<linearGradient id="paint15_linear_362_3439" x1="319.603" y1="768.522" x2="319.603" y2="778.184" gradientUnits="userSpaceOnUse">
<stop stop-color="#E4D1F3"/>
<stop offset="1" stop-color="#7B5F92"/>
</linearGradient>
<linearGradient id="paint16_linear_362_3439" x1="353.816" y1="780.56" x2="353.816" y2="790.222" gradientUnits="userSpaceOnUse">
<stop stop-color="#E4D1F3"/>
<stop offset="1" stop-color="#7B5F92"/>
</linearGradient>
<linearGradient id="paint17_linear_362_3439" x1="321.537" y1="55.1207" x2="321.537" y2="67.1586" gradientUnits="userSpaceOnUse">
<stop offset="0.260417" stop-color="#DE815F"/>
<stop offset="0.932292" stop-color="#76608F"/>
</linearGradient>
<linearGradient id="paint18_linear_362_3439" x1="272.436" y1="74.1279" x2="272.436" y2="86.1657" gradientUnits="userSpaceOnUse">
<stop offset="0.260417" stop-color="#DE815F"/>
<stop offset="0.932292" stop-color="#76608F"/>
</linearGradient>
</defs>
</svg>
