<?xml version="1.0" standalone="no"?>
<!DOCTYPE svg PUBLIC "-//W3C//DTD SVG 20010904//EN"
 "http://www.w3.org/TR/2001/REC-SVG-20010904/DTD/svg10.dtd">
<svg version="1.0" xmlns="http://www.w3.org/2000/svg"
 width="1080.000000pt" height="1080.000000pt" viewBox="0 0 1080.000000 1080.000000"
 preserveAspectRatio="xMidYMid meet">

<g transform="translate(0.000000,1080.000000) scale(0.100000,-0.100000)"
fill="#000000" stroke="none">
<path d="M0 5400 l0 -5400 5400 0 5400 0 0 5400 0 5400 -5400 0 -5400 0 0
-5400z m5830 4904 c218 -21 295 -32 447 -59 525 -96 1028 -276 1500 -537 111
-61 449 -271 463 -288 3 -3 38 -29 78 -58 40 -29 80 -59 90 -66 9 -8 58 -47
107 -87 646 -519 1184 -1255 1490 -2039 253 -648 373 -1370 336 -2032 -36
-654 -158 -1177 -416 -1783 -28 -65 -158 -322 -214 -424 -321 -576 -797 -1120
-1341 -1533 -254 -192 -504 -346 -795 -488 -524 -257 -988 -397 -1582 -478
-187 -25 -221 -26 -603 -27 -331 0 -431 3 -549 18 -815 102 -1429 320 -2151
764 -19 12 -40 26 -46 31 -5 5 -30 22 -55 38 -67 43 -273 198 -369 277 -325
269 -621 586 -871 932 -487 677 -793 1456 -898 2290 -45 358 -45 829 0 1210
129 1091 643 2136 1435 2917 305 301 593 526 943 737 689 416 1490 660 2301
701 194 10 510 3 700 -16z"/>
<path d="M5015 9819 c-677 -36 -1349 -171 -1686 -338 -142 -71 -219 -128 -276
-204 -52 -72 -67 -121 -61 -212 5 -73 38 -152 100 -240 201 -285 410 -652 511
-895 139 -337 185 -575 174 -897 -5 -153 -8 -178 -27 -208 -24 -39 -29 -119
-10 -155 6 -12 10 -23 8 -26 -2 -2 -53 3 -114 11 -252 34 -507 10 -712 -65
-229 -85 -438 -268 -532 -466 -59 -126 -75 -197 -74 -339 0 -115 3 -139 28
-210 90 -260 306 -429 609 -476 103 -16 324 -6 442 20 160 35 339 97 520 181
50 23 189 86 310 140 121 54 274 124 340 155 66 31 140 66 165 77 209 95 949
474 1320 676 717 390 888 472 989 472 l51 0 0 -34 c0 -43 -9 -66 -25 -66 -6 0
-31 -14 -54 -31 -107 -77 -106 -237 2 -323 32 -26 49 -31 106 -34 58 -4 75 0
121 23 176 89 282 296 252 493 -29 181 -132 306 -297 358 -180 57 -328 23
-695 -161 -134 -67 -556 -291 -575 -305 -5 -4 -53 -30 -105 -57 -52 -28 -142
-75 -200 -106 -261 -139 -351 -185 -582 -302 -136 -69 -329 -164 -430 -211
-101 -48 -224 -106 -273 -129 -50 -24 -174 -80 -275 -125 -102 -45 -241 -108
-310 -140 -444 -206 -797 -233 -957 -72 -52 52 -73 105 -73 189 0 216 187 401
463 457 169 34 333 29 537 -16 195 -43 263 -32 325 55 26 37 30 50 30 112 0
39 -4 78 -9 88 -8 17 -3 17 75 10 138 -13 404 -7 529 11 232 34 451 101 634
193 134 66 168 105 168 193 0 56 -36 121 -85 150 -54 33 -106 26 -221 -29
-138 -68 -281 -115 -444 -148 -123 -25 -158 -28 -349 -28 -116 0 -213 2 -215
5 -2 3 -1 68 4 145 8 135 -3 374 -21 471 -5 24 -6 46 -3 49 3 3 74 5 158 5
l152 0 11 -47 c7 -27 15 -98 20 -159 9 -127 24 -160 91 -194 75 -38 158 -17
203 52 25 38 27 50 27 139 0 54 -7 132 -15 175 -8 43 -14 78 -12 79 1 1 36 9
77 18 138 32 274 81 405 147 152 76 185 111 192 202 8 99 -68 191 -169 204
-43 6 -58 1 -177 -55 -224 -106 -395 -150 -676 -173 -172 -14 -393 -2 -406 22
-4 8 -29 69 -55 135 -53 132 -169 372 -239 490 -25 41 -45 79 -45 83 0 4 60 0
133 -10 201 -26 457 -39 714 -37 l232 2 44 -59 c119 -163 358 -291 693 -373
166 -40 344 -64 451 -60 80 4 94 7 126 32 80 61 99 158 47 241 -38 59 -91 85
-175 86 -174 1 -459 67 -630 145 l-60 28 175 23 c299 41 661 117 824 174 33
11 61 18 64 15 3 -2 -3 -35 -11 -72 -79 -327 -113 -599 -104 -837 10 -265 55
-471 143 -653 47 -99 89 -128 184 -128 57 0 72 4 103 27 94 73 108 146 53 280
-66 158 -87 269 -93 479 -8 272 15 442 109 814 40 159 49 211 46 257 -4 56 -3
60 34 100 56 61 82 121 86 203 12 224 -182 369 -607 454 -308 62 -782 85
-1246 60z m-218 -95 c-3 -3 -12 -4 -19 -1 -8 3 -5 6 6 6 11 1 17 -2 13 -5z
m196 -221 c-7 -2 -19 -2 -25 0 -7 3 -2 5 12 5 14 0 19 -2 13 -5z m-350 -30
c-7 -2 -19 -2 -25 0 -7 3 -2 5 12 5 14 0 19 -2 13 -5z m1327 -57 c213 -27 460
-84 460 -106 0 -13 -129 -70 -249 -110 -282 -95 -677 -168 -1156 -212 -225
-21 -942 -18 -1125 5 -216 27 -470 85 -470 107 0 15 184 91 312 129 239 72
483 121 798 160 133 17 223 26 470 45 25 2 223 2 440 1 286 -2 429 -8 520 -19z
m-2123 -82 c-3 -3 -12 -4 -19 -1 -8 3 -5 6 6 6 11 1 17 -2 13 -5z m-637 -8 c0
-2 -8 -10 -17 -17 -16 -13 -17 -12 -4 4 13 16 21 21 21 13z m-87 -81 c-3 -9
-8 -14 -10 -11 -3 3 -2 9 2 15 9 16 15 13 8 -4z m3322 -25 c-3 -5 -12 -10 -18
-10 -7 0 -6 4 3 10 19 12 23 12 15 0z m-478 -166 c-3 -3 -12 -4 -19 -1 -8 3
-5 6 6 6 11 1 17 -2 13 -5z m721 -97 c-3 -18 -19 -84 -36 -148 -90 -330 -125
-562 -125 -819 0 -171 4 -210 26 -317 14 -67 44 -168 67 -225 45 -111 47 -144
9 -192 -24 -31 -69 -56 -99 -56 -34 0 -94 36 -112 68 -34 58 -87 211 -113 326
-31 142 -48 351 -40 506 8 145 48 408 86 570 51 215 40 193 116 223 38 15 102
47 143 72 41 24 77 40 79 34 1 -6 1 -25 -1 -42z m-3200 -284 c61 -15 112 -31
112 -34 0 -4 18 -36 39 -71 57 -94 184 -339 227 -438 33 -77 84 -201 84 -205
0 -1 -22 0 -49 3 -63 6 -108 -10 -156 -53 -21 -20 -39 -34 -40 -33 0 2 -14 37
-29 78 -62 164 -266 544 -406 755 -25 39 -49 75 -53 81 -3 6 31 -4 76 -22 46
-18 133 -46 195 -61z m1659 -79 c-3 -3 -12 -4 -19 -1 -8 3 -5 6 6 6 11 1 17
-2 13 -5z m-177 -136 c0 -6 -6 -5 -15 2 -8 7 -15 14 -15 16 0 2 7 1 15 -2 8
-4 15 -11 15 -16z m1070 -108 c0 -5 -2 -10 -4 -10 -3 0 -8 5 -11 10 -3 6 -1
10 4 10 6 0 11 -4 11 -10z m-663 -86 c-3 -3 -12 -4 -19 -1 -8 3 -5 6 6 6 11 1
17 -2 13 -5z m590 -110 c-3 -3 -12 -4 -19 -1 -8 3 -5 6 6 6 11 1 17 -2 13 -5z
m-2135 -604 c13 -5 70 -16 127 -24 57 -9 105 -17 108 -19 2 -3 11 -57 19 -122
22 -166 17 -516 -8 -562 l-18 -31 73 -13 c99 -17 368 -14 502 6 219 32 410 91
574 175 67 34 88 41 116 36 74 -14 111 -111 64 -170 -12 -15 -60 -46 -108 -70
-307 -154 -699 -230 -1055 -205 -220 15 -399 74 -426 139 -17 40 -6 100 21
123 21 17 21 20 16 295 -4 221 -9 295 -24 365 -11 48 -16 87 -12 87 5 0 18 -4
31 -10z"/>
<path d="M6403 6490 c-102 -23 -166 -135 -133 -235 7 -23 40 -65 84 -108 102
-102 180 -197 253 -309 397 -605 388 -1491 -22 -2103 -137 -204 -303 -351
-545 -483 -543 -295 -1292 -278 -1795 42 -75 47 -96 56 -136 56 -152 0 -238
-155 -155 -280 50 -76 281 -205 491 -275 53 -18 65 -25 50 -30 -61 -21 -81
-37 -132 -105 -166 -227 -594 -480 -1033 -613 -138 -42 -241 -63 -375 -78
-116 -12 -162 -33 -200 -91 -72 -109 -18 -255 107 -289 144 -38 591 69 956
230 260 115 552 300 703 446 l60 58 77 -41 c128 -68 319 -141 462 -177 101
-26 261 -55 302 -55 21 0 38 -3 38 -7 0 -26 -59 -177 -101 -258 -65 -128 -118
-204 -167 -240 -26 -18 -49 -48 -61 -76 -25 -56 -182 -210 -326 -319 -141
-107 -181 -147 -195 -199 -19 -71 5 -141 65 -186 68 -53 150 -52 227 2 98 67
271 211 366 305 l104 102 91 -20 c141 -29 360 -25 489 9 111 29 243 88 329
147 32 22 63 40 68 40 5 0 39 -13 75 -30 138 -61 476 -160 550 -160 46 0 85
16 119 48 41 39 57 74 57 127 0 107 -53 161 -191 195 -141 34 -375 113 -454
152 -167 82 -252 131 -324 184 -86 65 -241 212 -241 229 0 6 32 21 71 34 97
31 287 128 383 195 156 108 293 239 406 386 24 30 46 59 51 64 4 5 28 -9 52
-30 246 -216 711 -452 1104 -559 223 -62 436 -89 509 -65 136 44 175 221 70
318 -47 43 -57 47 -191 62 -260 30 -536 120 -830 269 -270 138 -442 267 -570
429 -63 80 -152 103 -241 63 -45 -20 -65 -46 -109 -133 -58 -118 -253 -348
-385 -453 -117 -93 -292 -181 -462 -232 -84 -25 -108 -28 -243 -28 -164 0
-227 9 -407 61 -193 56 -375 144 -473 228 l-40 34 90 -18 c168 -34 293 -43
501 -37 210 6 334 21 499 63 421 105 800 334 1050 634 234 281 398 657 460
1055 23 143 31 498 16 636 -57 505 -255 932 -598 1290 -115 119 -169 147 -250
129z m102 -88 c-3 -3 -11 0 -18 7 -9 10 -8 11 6 5 10 -3 15 -9 12 -12z m442
-1254 c-3 -8 -6 -5 -6 6 -1 11 2 17 5 13 3 -3 4 -12 1 -19z m220 -20 c-3 -8
-6 -5 -6 6 -1 11 2 17 5 13 3 -3 4 -12 1 -19z m-230 -720 c-3 -8 -6 -5 -6 6
-1 11 2 17 5 13 3 -3 4 -12 1 -19z m-797 -1192 c0 -2 -7 -7 -16 -10 -8 -3 -12
-2 -9 4 6 10 25 14 25 6z m220 -110 c0 -3 -4 -8 -10 -11 -5 -3 -10 -1 -10 4 0
6 5 11 10 11 6 0 10 -2 10 -4z m-515 -26 c-3 -5 -12 -10 -18 -10 -7 0 -6 4 3
10 19 12 23 12 15 0z m-1280 -20 c3 -6 -1 -7 -9 -4 -18 7 -21 14 -7 14 6 0 13
-4 16 -10z m902 -76 c-3 -3 -12 -4 -19 -1 -8 3 -5 6 6 6 11 1 17 -2 13 -5z
m-480 -10 c-3 -3 -12 -4 -19 -1 -8 3 -5 6 6 6 11 1 17 -2 13 -5z m586 -191
c-7 -2 -19 -2 -25 0 -7 3 -2 5 12 5 14 0 19 -2 13 -5z m-266 -29 c-3 -3 -12
-4 -19 -1 -8 3 -5 6 6 6 11 1 17 -2 13 -5z m164 -917 c-10 -9 -11 -8 -5 6 3
10 9 15 12 12 3 -3 0 -11 -7 -18z m230 0 c-10 -9 -11 -8 -5 6 3 10 9 15 12 12
3 -3 0 -11 -7 -18z m197 -209 c39 -34 72 -64 72 -68 0 -19 -140 -53 -241 -58
l-106 -4 65 129 64 129 36 -34 c21 -19 70 -61 110 -94z m476 52 c35 -13 66
-66 66 -112 0 -47 -33 -86 -142 -169 -241 -181 -550 -247 -836 -179 -124 30
-228 76 -257 115 -64 83 9 202 113 182 15 -3 64 -19 110 -36 116 -43 242 -58
355 -42 89 13 190 43 257 77 42 21 145 93 180 126 50 48 98 60 154 38z m66
-274 c0 -3 -4 -8 -10 -11 -5 -3 -10 -1 -10 4 0 6 5 11 10 11 6 0 10 -2 10 -4z
m637 -88 c-3 -8 -6 -5 -6 6 -1 11 2 17 5 13 3 -3 4 -12 1 -19z m-240 -54 c-3
-3 -12 -4 -19 -1 -8 3 -5 6 6 6 11 1 17 -2 13 -5z m170 -30 c-3 -3 -12 -4 -19
-1 -8 3 -5 6 6 6 11 1 17 -2 13 -5z m-1917 -228 c0 -2 -8 -10 -17 -17 -16 -13
-17 -12 -4 4 13 16 21 21 21 13z m-303 -212 c-3 -3 -12 -4 -19 -1 -8 3 -5 6 6
6 11 1 17 -2 13 -5z"/>
<path d="M3690 5191 c-19 -11 -46 -34 -60 -53 -24 -32 -24 -37 -26 -233 -1
-235 -20 -383 -71 -560 -40 -142 -122 -313 -193 -407 -57 -76 -73 -117 -64
-168 11 -57 35 -89 104 -135 133 -88 305 -146 490 -166 94 -9 134 -7 240 13
75 14 105 31 140 80 59 81 31 193 -62 243 -51 28 -51 28 -134 15 -49 -8 -114
-11 -161 -7 -86 7 -183 32 -183 48 0 5 17 44 39 87 82 163 142 359 177 577 14
82 18 168 19 335 0 255 -3 266 -77 320 -33 24 -51 30 -92 30 -30 -1 -66 -9
-86 -19z m-137 -1036 c-3 -9 -8 -14 -10 -11 -3 3 -2 9 2 15 9 16 15 13 8 -4z
m-122 -228 c-10 -9 -11 -8 -5 6 3 10 9 15 12 12 3 -3 0 -11 -7 -18z m104 -295
c-3 -3 -11 0 -18 7 -9 10 -8 11 6 5 10 -3 15 -9 12 -12z m655 -36 c0 -2 -8
-10 -17 -17 -16 -13 -17 -12 -4 4 13 16 21 21 21 13z"/>
<path d="M4280 5034 c-178 -77 -180 -331 -3 -418 95 -47 193 -27 267 55 108
120 67 303 -81 366 -43 17 -139 16 -183 -3z"/>
</g>
</svg>
